<?xml version="1.0" standalone="no"?>
<!DOCTYPE svg PUBLIC "-//W3C//DTD SVG 20010904//EN"
 "http://www.w3.org/TR/2001/REC-SVG-20010904/DTD/svg10.dtd">
<svg version="1.0" xmlns="http://www.w3.org/2000/svg"
 width="400.000000pt" height="302.000000pt" viewBox="0 0 400.000000 302.000000"
 preserveAspectRatio="xMidYMid meet">

<g transform="translate(0.000000,302.000000) scale(0.100000,-0.100000)"
fill="#000000" stroke="none">
<path d="M1281 1929 c-29 -5 -56 -20 -77 -40 -30 -29 -33 -36 -30 -84 4 -72
10 -79 63 -71 31 4 42 2 37 -5 -7 -12 12 -29 34 -29 6 0 12 7 12 16 0 11 5 14
18 9 9 -4 23 -8 31 -9 17 -1 33 50 26 82 -3 12 -1 22 3 22 17 0 22 82 6 97
-18 18 -67 23 -123 12z"/>
<path d="M2640 1881 c-31 -9 -33 -35 -2 -39 29 -4 38 -26 23 -59 -9 -20 -16
-24 -37 -19 -23 6 -24 4 -18 -21 9 -37 10 -38 42 -27 21 7 29 19 38 54 9 36
12 40 15 21 6 -36 24 -36 39 -1 16 39 1 76 -36 90 -28 11 -28 11 -64 1z"/>
<path d="M2696 1658 c-22 -77 -44 -193 -52 -270 -6 -63 -8 -67 -33 -70 l-26
-3 -45 -355 -46 -355 -27 -15 c-15 -8 -27 -18 -27 -22 0 -8 94 -38 117 -38 10
0 12 9 7 34 -6 33 3 67 103 415 l15 54 33 -74 c17 -41 64 -138 104 -217 l71
-143 -52 -24 c-29 -14 -59 -25 -65 -25 -7 0 -13 -5 -13 -10 0 -7 36 -10 100
-9 99 2 100 2 100 27 0 13 -30 106 -66 205 -74 203 -84 250 -84 390 l0 97 36
0 36 0 -7 53 c-4 28 -12 63 -17 76 -4 13 -6 26 -3 29 6 7 3 11 53 -75 59 -100
82 -124 110 -117 20 6 22 11 16 43 -18 98 -74 220 -140 304 -41 52 -154 147
-175 147 -5 0 -15 -24 -23 -52z"/>
<path d="M2598 1568 c-57 -121 -69 -128 -164 -104 -69 17 -83 14 -84 -21 0
-26 142 -103 189 -103 13 0 22 11 29 38 6 20 27 83 47 140 52 146 42 174 -17
50z"/>
<path d="M1858 1633 c7 -3 16 -2 19 1 4 3 -2 6 -13 5 -11 0 -14 -3 -6 -6z"/>
<path d="M3162 1410 c0 -14 2 -19 5 -12 2 6 2 18 0 25 -3 6 -5 1 -5 -13z"/>
<path d="M1575 1352 c4 -7 2 -18 -3 -25 -8 -9 0 -23 29 -51 21 -22 39 -35 39
-28 0 6 12 12 28 14 26 3 26 4 -18 32 -25 15 -53 38 -63 50 -10 11 -16 15 -12
8z"/>
<path d="M3151 1324 c0 -11 3 -14 6 -6 3 7 2 16 -1 19 -3 4 -6 -2 -5 -13z"/>
<path d="M1406 1295 c4 -8 8 -15 10 -15 2 0 4 7 4 15 0 8 -4 15 -10 15 -5 0
-7 -7 -4 -15z"/>
<path d="M1060 1186 c-5 -13 -25 -37 -45 -54 -44 -36 -32 -51 26 -32 32 11 41
11 55 -1 15 -13 16 -11 8 11 -8 25 -9 53 -3 79 7 24 -31 21 -41 -3z"/>
<path d="M1441 1134 c0 -11 3 -14 6 -6 3 7 2 16 -1 19 -3 4 -6 -2 -5 -13z"/>
<path d="M1451 1054 c0 -11 3 -14 6 -6 3 7 2 16 -1 19 -3 4 -6 -2 -5 -13z"/>
<path d="M1755 1036 c-17 -89 16 -116 177 -141 62 -10 118 -21 125 -24 8 -4
-9 -34 -52 -88 l-65 -82 28 -19 c43 -29 123 -74 127 -70 1 1 17 29 35 61 17
31 35 55 39 53 4 -3 20 -37 35 -75 15 -39 33 -71 39 -71 6 0 42 12 80 26 80
31 80 17 -3 184 -31 63 -60 127 -63 141 -6 22 -26 35 -136 83 l-128 56 -116 0
-116 0 -6 -34z"/>
<path d="M3028 1063 c7 -3 16 -2 19 1 4 3 -2 6 -13 5 -11 0 -14 -3 -6 -6z"/>
<path d="M3158 1063 c6 -2 18 -2 25 0 6 3 1 5 -13 5 -14 0 -19 -2 -12 -5z"/>
<path d="M1463 890 c0 -36 2 -50 4 -32 2 17 2 47 0 65 -2 17 -4 3 -4 -33z"/>
<path d="M1402 585 l-2 -55 100 0 c78 0 100 3 100 14 0 7 -14 16 -31 20 -53
10 -99 37 -99 57 0 15 -7 19 -32 19 -33 0 -33 0 -36 -55z"/>
<path d="M1092 605 c-7 -14 -12 -37 -12 -50 0 -25 0 -25 101 -25 108 0 128 13
53 35 -60 18 -84 33 -78 50 5 11 -1 15 -23 15 -22 0 -33 -7 -41 -25z"/>
</g>
</svg>
